<?xml version="1.0" encoding="utf-8"?>
<!-- Generator: Adobe Illustrator 24.3.0, SVG Export Plug-In . SVG Version: 6.00 Build 0)  -->
<svg version="1.1" id="Capa_1" xmlns="http://www.w3.org/2000/svg" xmlns:xlink="http://www.w3.org/1999/xlink" x="0px" y="0px"
	 viewBox="0 0 47 47" style="enable-background:new 0 0 47 47;" xml:space="preserve">
<style type="text/css">
	.st0{fill:#FF5C65;}
</style>
<g>
	<g id="Layer_1_11_">
		<g>
			<path class="st0" d="M36.7,30.4L32,13.1L31.7,12c-0.3-1.3-1.6-2-2.9-1.7c-1,0.3-1.7,1.2-1.8,2.2L2,26.1c-0.3-0.3-0.7-0.4-1.1-0.3
				c-0.6,0.2-1,0.8-0.8,1.5L0.5,29l0.9,3.5l0.5,1.7c0.2,0.6,0.8,1,1.5,0.8c0.4-0.1,0.7-0.4,0.8-0.8l1.9-0.1c0.5,3,3.1,5.3,6.3,5.3
				c0.6,0,1.1-0.1,1.7-0.2c1.1-0.3,2-0.9,2.8-1.7c1-1,1.6-2.3,1.8-3.7l14-0.4c0.5,0.9,1.6,1.3,2.6,1c1.3-0.3,2-1.6,1.7-2.9
				L36.7,30.4z M15.2,35.8c-0.8,0.8-1.8,1.2-2.8,1.2c-1.8,0-3.4-1.3-3.8-3l7.7-0.2C16.1,34.6,15.7,35.3,15.2,35.8z M5.9,29.4
				l22.3-12.1l3.1,11.4L5.9,29.4z"/>
			<path class="st0" d="M40.2,21.4l5.8-1.5c0.6-0.2,1-0.8,0.8-1.5c-0.2-0.6-0.8-1-1.5-0.8l-5.8,1.5c-0.6,0.2-1,0.8-0.8,1.5
				C38.9,21.2,39.6,21.6,40.2,21.4z"/>
			<path class="st0" d="M46.1,28.9l-5.8-1.5c-0.6-0.2-1.3,0.2-1.5,0.8c-0.2,0.6,0.2,1.3,0.8,1.5l5.8,1.5c0.2,0.1,0.4,0.1,0.6,0
				c0.4-0.1,0.7-0.4,0.8-0.8C47.1,29.8,46.8,29.1,46.1,28.9z"/>
			<path class="st0" d="M36.2,14.2c0.2-0.1,0.4-0.2,0.5-0.3l4.2-4.2c0.5-0.5,0.5-1.2,0-1.7c-0.5-0.5-1.2-0.5-1.7,0L35,12.2
				c-0.5,0.5-0.5,1.2,0,1.7C35.4,14.2,35.8,14.3,36.2,14.2z"/>
		</g>
	</g>
</g>
</svg>
